<?xml version="1.0" standalone="no"?><!DOCTYPE svg PUBLIC "-//W3C//DTD SVG 1.1//EN" "http://www.w3.org/Graphics/SVG/1.1/DTD/svg11.dtd"><svg class="icon" width="128px" height="128.00px" viewBox="0 0 1024 1024" version="1.1" xmlns="http://www.w3.org/2000/svg"><path d="M550.4 277.333333h260.266667c56.554667 0 102.4 45.845333 102.4 102.4v375.466667c0 56.554667-45.845333 102.4-102.4 102.4H213.333333c-56.554667 0-102.4-45.845333-102.4-102.4V234.666667c0-37.704533 30.562133-68.266667 68.266667-68.266667h264.789333a68.266667 68.266667 0 0 1 58.1376 32.4864L550.4 277.333333z m259.84 528.695467c28.279467 0 51.2-22.9248 51.2-51.2v-375.466667c0-28.2752-22.920533-51.2-51.2-51.2H162.56v426.666667c0 28.2752 22.9248 51.2 51.2 51.2h596.48zM465.7152 226.197333A17.066667 17.066667 0 0 0 450.897067 217.6H179.2a17.066667 17.066667 0 0 0-17.066667 17.066667v41.634133L494.933333 277.333333l-29.218133-51.136z" fill="#797979" /></svg>