<?xml version="1.0" standalone="no"?><!DOCTYPE svg PUBLIC "-//W3C//DTD SVG 1.1//EN" "http://www.w3.org/Graphics/SVG/1.1/DTD/svg11.dtd"><svg class="icon" width="128px" height="128.00px" viewBox="0 0 1024 1024" version="1.1" xmlns="http://www.w3.org/2000/svg"><path d="M859.3 213.2H164.7c-20.2 0-36.7 16.5-36.7 36.7v524.3c0 20.2 16.5 36.7 36.7 36.7h694.7c20.2 0 36.7-16.5 36.7-36.7V249.8c-0.1-20.2-16.6-36.6-36.8-36.6z m-13.9 50.6v282.4l-107.9-87.1c-13.5-10.9-33.1-10.8-46.5 0.3L566.5 562.9 408.8 514c-7.5-2.3-15.3-2.2-22.7 0.3l-207.5 70.9V263.8h666.8zM178.6 760.2V638.7l219.5-75.1 160.6 49.8c11.9 3.7 24.7 1.2 34.3-6.8l121.6-101 130.8 105.6v149H178.6z" fill="#040000" /></svg>